<svg xmlns="http://www.w3.org/2000/svg" width="166" height="66" viewBox="0 0 166 66"><defs><style>.a{fill:none;}.b{fill:#bbb;fill-rule:evenodd;}</style></defs><title>seguros-</title><rect class="a" width="166" height="66"/><path class="b" d="M20,19A20,20,0,0,0,4.1,51.13L20.72,29.28H17.16a27.64,27.64,0,0,0-5,.38,5.36,5.36,0,0,0-2,.84,7.84,7.84,0,0,0-2,2.42l-.27.51-1-.21,1.63-6.28H29.34L12.79,49.06A23.19,23.19,0,0,1,15.16,49q1,0,3.06.12l2.94.18c1.06.06,2,.09,2.63.09a11.66,11.66,0,0,0,3.49-.41,8.16,8.16,0,0,0,2.14-1,9.86,9.86,0,0,0,3-3.38c.07-.13.18-.33.3-.6l.88.23a12.29,12.29,0,0,1-.87,2.5A10.28,10.28,0,0,1,29.41,51a8,8,0,0,1-4.84,1.6h-.28A34.41,34.41,0,0,1,18.56,52a43.69,43.69,0,0,0-6.74-.69,20.56,20.56,0,0,0-3.25.26,10.25,10.25,0,0,0-3.31,1A20,20,0,1,0,20,19Z"/><path class="b" d="M73.5,29.21H58.21l-1.88,4.15a11.1,11.1,0,0,1,1.43-.67,13.71,13.71,0,0,1,2.75-.78,17.28,17.28,0,0,1,2.74-.24c.53,0,1,0,1.51,0H67l-11.89,17H71.94l1.94-4.43a16,16,0,0,1-1.43.75,13.24,13.24,0,0,1-3.15,1,20.67,20.67,0,0,1-3,.27H61.71l11.79-17Z"/><path class="b" d="M124,48.64a2.37,2.37,0,0,1-.6-.68,2.53,2.53,0,0,1-.3-.59,5.2,5.2,0,0,1-.27-1.71V32.81a6.81,6.81,0,0,1,.21-2.19,2.73,2.73,0,0,1,.28-.6,2.58,2.58,0,0,1,.73-.81h-6.24a3,3,0,0,1,.72.77,2.43,2.43,0,0,1,.3.63,6.84,6.84,0,0,1,.2,2.09c0,.59,0,1,0,1.17V45.51a5.48,5.48,0,0,1-.31,1.88,2.63,2.63,0,0,1-.31.57,4.39,4.39,0,0,1-.59.68Z"/><path class="b" d="M143.55,29.38a10.34,10.34,0,0,0-1.19-.31,15.71,15.71,0,0,0-3.41-.35,14.12,14.12,0,0,0-5.55,1,11.5,11.5,0,0,0-2.67,1.59,9.94,9.94,0,0,0-3.7,7.94,9.48,9.48,0,0,0,3.55,7.64,11.47,11.47,0,0,0,7.27,2.25,17.65,17.65,0,0,0,5.45-.87l.32-.1V44.66c-.47.32-.63.42-.91.58a9.41,9.41,0,0,1-1.19.59,8.4,8.4,0,0,1-3.4.73,6.58,6.58,0,0,1-5-2.1,7.8,7.8,0,0,1-1.94-5.38,8.14,8.14,0,0,1,1.75-5.25,6.54,6.54,0,0,1,1.77-1.44,7.64,7.64,0,0,1,3.75-.93,9.18,9.18,0,0,1,3.5.7,6.72,6.72,0,0,1,1.6.88V29.38Z"/><path class="b" d="M160.59,39.82v4.74a15.57,15.57,0,0,1-.08,2,3.69,3.69,0,0,1-.21.84,2.87,2.87,0,0,1-.7,1l-.27.24h6.21A3.42,3.42,0,0,1,165,48a3,3,0,0,1-.37-.64,4.38,4.38,0,0,1-.25-1.75c0-.58,0-.91,0-1l0-10.69V32.79a7.72,7.72,0,0,1,.22-2.05,2.82,2.82,0,0,1,.3-.72,2.75,2.75,0,0,1,.77-.81h-6.34a2.62,2.62,0,0,1,.71.79,2.8,2.8,0,0,1,.32.68,6.52,6.52,0,0,1,.21,2v4.72h-8.71V33.89c0-1.07,0-1.77.05-2.3a3.32,3.32,0,0,1,.15-.84,4.22,4.22,0,0,1,.81-1.34l.22-.2h-6.23a5.18,5.18,0,0,1,.64.74,2.61,2.61,0,0,1,.33.67,5.57,5.57,0,0,1,.22,2.05V44.54a16.15,16.15,0,0,1-.08,2.05,3.21,3.21,0,0,1-.19.77,2.82,2.82,0,0,1-.74,1.09l-.22.19H153a3.11,3.11,0,0,1-.52-.64,3.36,3.36,0,0,1-.3-.6,4.13,4.13,0,0,1-.29-1.7c0-.42,0-.81,0-1.17V39.82Z"/><path class="b" d="M76.15,29.21a2.53,2.53,0,0,1,.71.78,2.68,2.68,0,0,1,.27.68,3.83,3.83,0,0,1,.13.89c0,.22,0,.62,0,1.21v6.68c0,2,0,2.64.08,3.43a6.34,6.34,0,0,0,1.36,3.57A7.19,7.19,0,0,0,82,48.73a10.52,10.52,0,0,0,3.54.55,11.86,11.86,0,0,0,3.94-.61,7.49,7.49,0,0,0,2.89-1.94A6.4,6.4,0,0,0,93.94,43a29.63,29.63,0,0,0,.14-3.48V32.64a8,8,0,0,1,.17-1.93,2.6,2.6,0,0,1,.87-1.33l.23-.17H89.58a2.64,2.64,0,0,1,.42.84,4.21,4.21,0,0,1,.17.74A28.33,28.33,0,0,1,90.29,34v6a21.31,21.31,0,0,1-.16,3.29,3.94,3.94,0,0,1-.5,1.42,3.83,3.83,0,0,1-2.4,1.67,6,6,0,0,1-1.38.15A5.4,5.4,0,0,1,83.21,46a3.36,3.36,0,0,1-1.15-1c-.53-.78-.69-1.56-.71-3.56l0-2.44V34a25.88,25.88,0,0,1,.12-3.22,3.63,3.63,0,0,1,.48-1.41l.11-.17Z"/><path class="b" d="M103.54,44.65v1a5,5,0,0,0,.26,1.79,2.46,2.46,0,0,0,.33.59,4.36,4.36,0,0,0,.54.63H98.49a4.09,4.09,0,0,0,.64-.67,2.5,2.5,0,0,0,.34-.62,5.39,5.39,0,0,0,.22-1.88V32.72a7.12,7.12,0,0,0-.19-2.07,2.44,2.44,0,0,0-.34-.71,3,3,0,0,0-.65-.73h5c.62,0,1.22,0,1.8,0a15.28,15.28,0,0,1,3.32.34,6.35,6.35,0,0,1,3.16,1.75,4.51,4.51,0,0,1,1.32,3.19,4.79,4.79,0,0,1-.24,1.49,4.73,4.73,0,0,1-1.53,2.22,8.42,8.42,0,0,1-2.4,1.39c-.34.13-.49.18-.86.3l3,3.55c.36.43.84.95,1.41,1.58.91,1,1.52,1.61,2.21,2.26.29.28.57.53.83.76l.71.58h-3.45a3.93,3.93,0,0,1-1.93-.46,8.44,8.44,0,0,1-2-1.59c-.21-.22-.53-.57-.94-1s-.64-.73-.81-.94l-3.6-4.31v4.37Zm.31-6a7.05,7.05,0,0,0,1-.09,6.31,6.31,0,0,0,2.45-.79,3.93,3.93,0,0,0,.9-.73,3.21,3.21,0,0,0,.76-2.2,3,3,0,0,0-1-2.38,3.59,3.59,0,0,0-1.32-.71,9.84,9.84,0,0,0-2.62-.32h-.5v7.2Z"/></svg>