<svg xmlns="http://www.w3.org/2000/svg" xmlns:xlink="http://www.w3.org/1999/xlink" xmlns:xodm="http://www.corel.com/coreldraw/odm/2003" xml:space="preserve" width="73.5046mm" height="21.1666mm" version="1.1" style="shape-rendering:geometricPrecision; text-rendering:geometricPrecision; image-rendering:optimizeQuality; fill-rule:evenodd; clip-rule:evenodd" viewBox="0 0 7350.46 2116.66">
 <defs>
  <style type="text/css">
   <![CDATA[
    .fil0 {fill:none}
    .fil2 {fill:#bbb}
    .fil1 {fill:#bbb}
   ]]>
  </style>
 </defs>
 <g id="Capa_x0020_1">
  <metadata id="CorelCorpID_0Corel-Layer"/>
  <rect class="fil0" x="-28.94" width="7350.46" height="2116.66"/>
  <g id="_2521119865648">
   <path class="fil1" d="M1530.52 920.7c7.5,81.78 -73.71,168.24 -119.91,202.52 -82.35,61.13 -145.11,58.48 -218.73,68.38 -47.54,6.38 -20.4,-6.78 -34.5,15.79 23.35,15.59 63.07,11.68 90.02,15.82 28.25,4.33 54.12,9.7 80.01,19.62 60.41,23.14 90.61,47.49 124.82,84.49l173.33 244.57c65.62,-27.72 144.65,-117.99 185.2,-179.88 47.02,-71.75 90.63,-167.14 102.68,-270.18 32.56,-319.21 -120.37,-539.3 -300.46,-653.36 -222.82,-141.11 -554.41,-128.66 -742.76,29.67 165.11,26.49 480.78,-70.84 628.63,193.09 18.01,32.16 28.48,60.8 36.69,102.41l-5.02 127.06z"/>
   <path class="fil1" d="M649.58 1273.33c39.01,66.58 49.78,106.15 96.67,163.42 43.53,53.16 78.02,89.58 140.23,131.26 93.99,62.98 258.37,140.34 409.61,115.25l-158.12 -219.71c-18.65,-26.37 -34.73,-50.78 -55.81,-76.1 -193.55,-232.49 -166.31,-159.95 -328.54,-190.15l0.47 -127.12c116.02,-21.13 347.89,51.6 405.74,-144.36 31.77,-114.25 -16.82,-213.51 -97.27,-255.11 -69.78,-36.07 -241.75,-28.71 -334.97,-25.31 -54.01,60.95 -102.57,184.52 -116.32,283.19 -20.24,145.32 3.11,220.84 38.31,344.74z"/>
   <g>
    <path class="fil2" d="M4405.89 526.81c194.11,3.11 240.2,5.49 240.58,210.99 0.38,204.34 -53.46,201.04 -240.55,206.86l-0.03 -417.85zm-111.59 506.08c293.59,27.79 464.45,18.07 464.79,-295 0.15,-136.9 -18.96,-225.26 -111.2,-273.46 -82.55,-43.14 -251.9,-40.43 -352.88,-27.53l-0.71 595.99z"/>
    <path class="fil2" d="M2440.91 530.37c45.16,-6.98 105.81,-6.08 150.3,5.9 90.72,24.41 121.45,222.87 -150.09,184.46l-0.21 -190.36zm222.13 265.12c27.8,-37.42 80.15,-30.47 95.74,-124.87 44.94,-271.96 -221.43,-240.39 -426.6,-235.82l0.08 599.08 108.77 0.07 1.84 -219.15 106.48 -2.29c29.85,50.18 102.38,186.11 136.9,221.6l113.18 -1.8c-42.08,-74.74 -91.72,-162.02 -136.39,-236.82z"/>
    <path class="fil2" d="M5090.73 519.24l72.21 255.13 -146.19 0.64 73.98 -255.77zm-99.22 347.78c199.07,-0.11 189.67,-15.62 206.83,36.07l38.05 130.77 119.96 -0.31 -182.37 -598.16 -166.82 -0.68 -180.57 599.15 114.73 -0.38 50.19 -166.46z"/>
    <path class="fil2" d="M6407.95 774.68c6.81,-39.44 25.62,-93.06 37.87,-131.52l34.93 -126.47 72.34 257.69 -145.14 0.3zm-24.87 92.08l193.56 1.5 54.53 165.18 115.54 0.18 -182.55 -598.49 -167.57 2.7 -179.64 596.03 115.72 -0.41 50.41 -166.69z"/>
    <path class="fil2" d="M3921.61 519.23c5.18,7.05 68.35,229.94 73.71,255.14l-146.46 -1.42 72.75 -253.72zm-147.62 514.69c16.55,-51.89 27.37,-125.53 57.02,-166.76 198.09,-0.28 181.41,-14.2 199.15,34.61 4.87,13.41 8.37,29 12.87,44.53 8.64,29.85 19.21,58.52 25.77,87.59l119.41 -0.2 -182.86 -597.81 -166.32 -1.16 -180.77 599.15 115.73 0.05z"/>
    <path class="fil2" d="M5363.4 435.77l179.54 598.1 165.57 -0.06 179.05 -598.35 -111.06 -0.69c-26.16,86.96 -51.24,171.88 -77.91,259.39 -24.13,79.12 -43.93,177.8 -69.62,255.5 -20.63,-44.79 -56.89,-204.04 -74.94,-263.58 -24.38,-80.44 -47.95,-177.47 -76.14,-250.79l-114.49 0.48z"/>
    <path class="fil2" d="M3125.1 436.79l179.24 597.08 165.54 -0.31 178.42 -598.55 -110.66 0.88c-28.8,85.93 -52.24,173.18 -78.02,259.56l-67.84 254.98 -152.61 -514.4 -114.07 0.76z"/>
    <polygon class="fil2" points="5997.15,1033.9 6079.38,1033.9 6110.73,1033.58 6108.93,435.6 5998.4,435.51 5997.04,473.98 5997.04,498.71 5997.07,680.07 5997.15,886.16 "/>
    <polygon class="fil2" points="2904.7,1032.67 3017.74,1033.86 3015.81,434.83 2904.96,438.13 "/>
    <path class="fil2" d="M4795.75 1381.96c81.78,-4.66 164.82,-8.24 161.34,80.58 -3.26,83.32 -81.68,77.71 -161.45,73.86l0.11 -154.44zm138.52 186.76c74.29,-22.3 99.34,-128.45 49.65,-188.1 -46.02,-55.25 -156.68,-44.71 -237.63,-43.75l-0.52 399.18 49.38 0.05 3.05 -154.02 80.45 -2.08c98.53,141.03 56.15,159.09 152.42,153.91l-96.8 -165.19z"/>
    <path class="fil2" d="M5135.6 1586.87c-23.61,-295.24 194.59,-252.57 206.58,-97.11 6.16,80 6.43,177.87 -63.2,203.32 -85.66,31.3 -137.05,-27.05 -143.38,-106.21zm-48.84 16.49c13.14,100.38 93.27,171.27 210.4,131.71 159.63,-53.91 137.85,-485.1 -116,-395.77 -92.99,32.73 -110.18,143.56 -94.4,264.06z"/>
    <path class="fil2" d="M4221.69 1697.6c-167.78,6.62 -174.75,-31.22 -171.17,-193.43 1.43,-64.57 12.37,-109.05 67.98,-124.45 23.83,-6.6 54.98,-5.84 81.02,-4.43 22.3,1.2 57.57,7.26 77.21,-2.76 -1.18,-33.75 21.72,-38.02 -91.41,-41.5 -129.46,-3.99 -184.15,40.26 -185.56,189.86 -2.11,224.94 69.95,229.86 276.72,213.89l0.18 -205.41 -49.07 0.03 -5.9 168.2z"/>
    <path class="fil2" d="M4374.58 1336.61c-16.25,9.25 -16.13,5.94 -15.37,60.14 2.18,153.86 -32.52,347.99 147.11,347.15 166.02,-0.77 143.87,-161.01 144.06,-280.68 0.17,-112.79 11.73,-126.48 -36.97,-126.7l-7.11 13.29c-18.68,51.81 5.98,-37.56 -4.53,14.52 -20.61,102.08 58.26,334.86 -95.78,335.11 -131.76,0.22 -96.74,-178.2 -96.58,-363.03l-34.83 0.2z"/>
    <path class="fil2" d="M3744.95 1380.53l187.67 0.09 -3.85 -42.91 -232.31 0.35 -2.31 396.69c48.6,0.93 207.87,11.01 237.82,-7.74l-0.08 -24.73c-23.91,-13.1 -64.65,-8.26 -92.58,-8.12 -31.46,0.17 -62.83,0 -94.35,0.36l-0.58 -142.3 175.8 -0.48 -0.53 -45.58 -175.04 -0.05 0.27 -51.14 0.07 -74.44z"/>
    <path class="fil2" d="M3411.18 1458.86c-10.38,-111.1 63.81,-86.89 188.34,-78.97 -1.79,-48.92 0.51,-43.99 -56.65,-47.44 -87.76,-5.28 -215.99,-2.58 -180.67,129.2 32.16,119.98 237.34,53.84 190.6,219.79 -59.32,31.8 -87.88,18.07 -147.23,15.58 -54.16,-2.28 -28.36,-6.18 -38.7,13.51 -4.65,27.16 -1.09,28.75 68.63,32.11 78.5,3.79 176.72,0.89 177.49,-106.37 0.81,-112.94 -104.31,-100.33 -201.81,-177.41z"/>
    <path class="fil2" d="M5474.22 1710.53c5.12,32.17 -12.25,22.95 38.97,30.36 16.45,2.38 46.45,2.76 63.89,2.91 197.16,1.75 159.18,-160.64 88.47,-204.57 -50.45,-31.35 -155.41,-46.28 -149.21,-116.89 6.83,-77.81 132.57,-39.45 175.27,-44.73 17.28,-2.14 6.82,0.07 15.8,-5.08 -1.31,-36.17 8.22,-31.94 -33.71,-38.34 -46.49,-7.08 -137.43,-7.61 -173.72,19.17 -67.32,49.68 -30.93,138.69 23.93,170.78 55.97,32.75 159.12,41.43 144.63,127.62 -6.84,40.73 -36.24,48.71 -83.08,49.92 -65.38,1.69 -96.6,-17.59 -111.24,8.85z"/>
   </g>
  </g>
 </g>
</svg>